PathFileType	4	(X/Y/Z)	/Users/itak/Documents/Research/Walk-IL/dataset/trc/00338_00011.trc
DataRate	CameraRate	NumFrames	NumMarkers	Units	OrigDataRate	OrigDataStartFrame	OrigNumFrames
100.000000	100.000000	4	54	mm	100.000000	573	764
Frame#	Time	RPSI			LPSI			L3			STRN			T10			C7			CLAV			RBAK			LBAK			LSHO			LUPA			LAEL			LAOL			LWTS			LWPS			LFRA			LIFD			LHPS			LHTS			RSHO			RUPA			RAEL			RAOL			RWPS			RFRA			RIFD			RHTS			RHPS			RBHD			LFHD			RFHD			LBHD			LHIP			RHIP			RASI			LASI			LKNE			LTHI			LANK			LTIP			LTOE			LMT1			LMT5			LHEE			RKNE			RTHI			RANK			RTIP			RTOE			RMT5			RHEE			RWTS			RMT1			*53			
		X1	Y1	Z1	X2	Y2	Z2	X3	Y3	Z3	X4	Y4	Z4	X5	Y5	Z5	X6	Y6	Z6	X7	Y7	Z7	X8	Y8	Z8	X9	Y9	Z9	X10	Y10	Z10	X11	Y11	Z11	X12	Y12	Z12	X13	Y13	Z13	X14	Y14	Z14	X15	Y15	Z15	X16	Y16	Z16	X17	Y17	Z17	X18	Y18	Z18	X19	Y19	Z19	X20	Y20	Z20	X21	Y21	Z21	X22	Y22	Z22	X23	Y23	Z23	X24	Y24	Z24	X25	Y25	Z25	X26	Y26	Z26	X27	Y27	Z27	X28	Y28	Z28	X29	Y29	Z29	X30	Y30	Z30	X31	Y31	Z31	X32	Y32	Z32	X33	Y33	Z33	X34	Y34	Z34	X35	Y35	Z35	X36	Y36	Z36	X37	Y37	Z37	X38	Y38	Z38	X39	Y39	Z39	X40	Y40	Z40	X41	Y41	Z41	X42	Y42	Z42	X43	Y43	Z43	X44	Y44	Z44	X45	Y45	Z45	X46	Y46	Z46	X47	Y47	Z47	X48	Y48	Z48	X49	Y49	Z49	X50	Y50	Z50	X51	Y51	Z51	X52	Y52	Z52	X53	Y53	Z53	X54	Y54	Z54	

574	5.73	-627.2989501953125	962.9561767578125	330.1539306640625	-500.8242797851562	959.7041625976562	298.858154296875	-565.0782470703125	1024.993408203125	306.6976318359375	-488.6145629882812	1216.850341796875	519.327392578125	-553.6903076171875	1143.65576171875	290.3968811035156	-524.4644775390625	1393.1142578125	317.7055053710938	-492.2239379882812	1339.683471679688	469.79638671875	-603.5549926757812	1256.286376953125	287.9162292480469	-430.8191833496094	1353.927001953125	279.63623046875	-355.4940185546875	1370.287719726562	347.9132995605469	-295.72705078125	1249.528442382812	316.1417846679688	-270.1942749023438	1048.34228515625	342.8153686523438	-337.4263000488281	1026.343872070312	294.3142700195312	-288.8784790039062	883.7833862304688	532.6075439453125	-242.649658203125	849.1995849609375	494.0741577148438	-257.9435424804688	959.7310791015625	388.06201171875	-290.641845703125	748.126953125	619.3402099609375	-249.1400604248047	787.4493408203125	528.7333984375	-269.6649169921875	820.6476440429688	579.4910888671875	-667.7251586914062	1384.15673828125	410.0951538085938	-733.7484130859375	1321.410400390625	412.1988830566406	-787.8300170898438	1059.014892578125	423.9003295898438	-704.96875	1042.421630859375	379.3293762207031	-823.9429321289062	822.1851806640625	513.41845703125	-801.2975463867188	993.1535034179688	452.1665954589844	-768.907958984375	660.6937255859375	555.5159301757812	-772.2670288085938	733.8681030273438	572.3051147460938	-824.948974609375	736.2379760742188	528.3089599609375	-580.5675048828125	1609.400634765625	418.3500061035156	-402.834716796875	1589.4501953125	524.876708984375	-498.40087890625	1596.802368164062	558.1525268554688	-455.92138671875	1598.4462890625	346.03662109375	-385.7025451660156	897.40869140625	365.4007873535156	-713.5938720703125	925.9798583984375	435.5909729003906	-642.9332275390625	958.1484375	526.699951171875	-405.65576171875	937.9324340820312	490.3249206542969	-458.6243896484375	449.6572570800781	470.9378662109375	-421.9620361328125	588.0064086914062	452.7652893066406	-561.783203125	50.00940704345703	379.0311279296875	-503.270263671875	232.2553558349609	430.0059204101562	-592.132568359375	41.27906036376953	591.5829467773438	-640.7322387695312	30.35796737670898	527.9745483398438	-532.9476928710938	43.79246520996094	500.8592224121094	-633.3054809570312	48.34160995483398	355.3104553222656	-697.5159912109375	498.7744445800781	617.6514282226562	-708.1798706054688	740.46533203125	570.5978393554688	-763.3562622070312	182.8955993652344	338.7499389648438	-711.636962890625	391.0785217285156	569.8655395507812	-734.3565673828125	56.08127593994141	489.5688171386719	-792.9114379882812	111.7183609008789	406.3329467773438	-709.6519775390625	208.5440368652344	303.580810546875	-753.600830078125	832.258544921875	539.0708618164062	-685.9015502929688	79.59116363525391	444.2490844726562	nan	nan	nan	
575	5.74	-629.029296875	962.9152221679688	339.2133483886719	-503.2140808105469	959.634765625	305.1310424804688	-567.0821533203125	1025.5458984375	313.9569396972656	-485.7910766601562	1216.822265625	525.766845703125	-555.1927490234375	1143.894165039062	298.3590087890625	-525.3421020507812	1393.306640625	325.0824584960938	-490.3680114746094	1339.691650390625	476.48779296875	-605.0137939453125	1256.598388671875	296.5863342285156	-432.4092102050781	1354.192993164062	285.2534790039062	-355.8386535644531	1370.52978515625	352.09228515625	-296.5047912597656	1249.693237304688	319.3683471679688	-270.2643737792969	1048.607055664062	346.4326171875	-338.1361694335938	1026.162475585938	298.950439453125	-286.5474243164062	889.3229370117188	540.0540161132812	-241.0855407714844	853.3935546875	501.7430114746094	-257.4808044433594	961.284912109375	393.1038818359375	-287.6882934570312	756.3872680664062	630.82177734375	-247.4656982421875	792.6348266601562	538.34521484375	-266.8437805175781	827.518798828125	588.397216796875	-666.8941650390625	1384.33935546875	420.0243835449219	-732.9822387695312	1321.782592773438	423.0370483398438	-787.1307373046875	1059.298828125	432.8312072753906	-704.6738891601562	1043.068725585938	387.4411926269531	-823.2113647460938	821.6253051757812	519.8047485351562	-800.5194091796875	993.22021484375	460.4666748046875	-768.3829956054688	659.4544067382812	559.5971069335938	-771.3692626953125	732.2550659179688	577.2529296875	-824.390380859375	735.4910278320312	533.5901489257812	-579.70703125	1609.548461914062	426.5901184082031	-400.3250427246094	1589.543090820312	530.3959350585938	-495.3527526855469	1596.880004882812	565.0439453125	-456.2101745605469	1598.566650390625	352.3641357421875	-387.6358947753906	896.7308959960938	369.7442016601562	-712.0255126953125	926.5314331054688	446.4741516113281	-639.8057861328125	958.6259155273438	536.329833984375	-403.7165222167969	937.7999877929688	494.5019226074219	-457.8053588867188	449.2683410644531	472.666015625	-422.2882080078125	587.6726684570312	454.6486206054688	-562.1321411132812	50.29961776733398	379.2361755371094	-503.3338928222656	232.3667449951172	430.8551330566406	-592.0692749023438	41.0888786315918	591.7785034179688	-639.6635131835938	31.4462718963623	529.0762329101562	-533.0089721679688	43.84592437744141	500.9011840820312	-633.6835327148438	48.62152862548828	355.4967346191406	-690.0621337890625	500.4444274902344	632.5531005859375	-703.7992553710938	741.8158569335938	583.4213256835938	-762.731201171875	174.2959442138672	367.5057678222656	-705.31201171875	391.0761108398438	588.5114135742188	-729.5125732421875	55.85015869140625	524.2592163085938	-790.3634033203125	107.0631103515625	439.8045043945312	-709.8341674804688	197.7447967529297	329.4178771972656	-752.77099609375	831.1947021484375	545.2539672851562	-682.1809692382812	76.33570098876953	476.1907348632812	nan	nan	nan	
576	5.75	-630.6083984375	962.8917846679688	348.2612915039062	-505.5191345214844	959.6563720703125	311.4792175292969	-569.0798950195312	1026.07763671875	321.1363525390625	-482.9940185546875	1216.703369140625	532.112060546875	-556.6354370117188	1144.087158203125	306.3172912597656	-526.1573486328125	1393.443603515625	332.4638366699219	-488.5003051757812	1339.636108398438	483.1347045898438	-606.4148559570312	1256.837890625	305.2597351074219	-433.9944763183594	1354.4189453125	290.906494140625	-356.186279296875	1370.69580078125	356.2898864746094	-297.3454895019531	1249.778930664062	322.5712280273438	-270.5126647949219	1048.76513671875	349.9131469726562	-339.0348205566406	1025.95458984375	303.4311828613281	-284.3218994140625	894.4989013671875	546.9021606445312	-239.6387634277344	857.2593383789062	508.8582763671875	-257.1728820800781	962.6876831054688	397.8094177246094	-284.7062377929688	764.2825927734375	641.4150390625	-245.7905120849609	797.5737915039062	547.2430419921875	-264.0665283203125	834.013427734375	596.5667724609375	-665.9771118164062	1384.465087890625	429.9140930175781	-732.1130981445312	1322.091552734375	433.8491821289062	-786.4241943359375	1059.567016601562	441.9194030761719	-704.4698486328125	1043.683837890625	395.6201171875	-822.628173828125	821.171630859375	526.3587646484375	-799.7402954101562	993.3018798828125	468.9590759277344	-768.0088500976562	658.2738037109375	563.7894287109375	-770.4226684570312	730.5596313476562	582.23583984375	-823.9208374023438	734.7797241210938	539.0457153320312	-578.7973022460938	1609.6240234375	434.7917785644531	-397.7967529296875	1589.580200195312	535.8423461914062	-492.2721862792969	1596.901000976562	571.8729858398438	-456.4705200195312	1598.603393554688	358.6693115234375	-389.1015625	896.44873046875	373.7834167480469	-710.2789306640625	926.7699584960938	457.8021545410156	-636.7280883789062	959.0570068359375	545.828369140625	-401.9092712402344	937.6217041015625	498.6698608398438	-457.1234741210938	448.9042663574219	474.4981689453125	-422.6659545898438	587.3137817382812	456.6814575195312	-562.5563354492188	50.58202362060547	379.4578247070312	-503.4441833496094	232.4490814208984	431.8116455078125	-591.994873046875	40.8994026184082	591.9986572265625	-638.3438720703125	32.82895660400391	530.5413208007812	-533.1039428710938	43.92055130004883	500.9439086914062	-634.0889892578125	48.88031768798828	355.7531433105469	-682.3744506835938	501.9396362304688	646.8433837890625	-699.2167358398438	742.990478515625	595.8693237304688	-761.253173828125	165.4925537109375	396.8196716308594	-698.5588989257812	390.9026489257812	606.8203125	-723.1239624023438	55.67898178100586	558.69140625	-786.5652465820312	102.3038711547852	473.473876953125	-709.5072631835938	186.8075256347656	355.8404846191406	-751.9918823242188	830.1572265625	551.5651245117188	-677.1596069335938	73.25835418701172	508.0426025390625	nan	nan	nan	
577	5.76	-632.0452270507812	962.8995361328125	357.3065490722656	-507.7444458007812	959.794189453125	317.9008483886719	-571.0843505859375	1026.571655273438	328.2728576660156	-480.2254028320312	1216.5	538.3775634765625	-558.0220947265625	1144.234008789062	314.236328125	-526.9058227539062	1393.5244140625	339.8499450683594	-486.6178588867188	1339.519897460938	489.73876953125	-607.7359008789062	1257.000854492188	313.9386291503906	-435.5767517089844	1354.6103515625	296.6063232421875	-356.5376586914062	1370.780883789062	360.5241088867188	-298.2594909667969	1249.782592773438	325.7672119140625	-270.9311218261719	1048.810302734375	353.2680053710938	-340.1166076660156	1025.713745117188	307.7709655761719	-282.2115173339844	899.2628784179688	553.1812744140625	-238.2991180419922	860.7860107421875	515.4383544921875	-257.0167236328125	963.9242553710938	402.1894226074219	-281.6981811523438	771.703857421875	651.1266479492188	-244.1011199951172	802.2213134765625	555.4309692382812	-261.355224609375	840.0692138671875	604.0376586914062	-664.975341796875	1384.53369140625	439.7598571777344	-731.148193359375	1322.33251953125	444.62255859375	-785.6951904296875	1059.812255859375	451.1689453125	-704.3490600585938	1044.262329101562	403.8677368164062	-822.1626586914062	820.8008422851562	533.0858154296875	-798.941650390625	993.3875122070312	477.6481628417969	-767.7777099609375	657.1488037109375	568.1158447265625	-769.522216796875	728.8934326171875	587.3290405273438	-823.541748046875	734.1259155273438	544.7055053710938	-577.8377685546875	1609.624267578125	442.9532165527344	-395.2601928710938	1589.562866210938	541.2294311523438	-489.1799926757812	1596.864501953125	578.6535034179688	-456.6946411132812	1598.561889648438	364.9636535644531	-389.9077453613281	896.6727294921875	377.3330993652344	-708.5808715820312	926.7217407226562	469.6102600097656	-633.697265625	959.4051513671875	555.1824340820312	-400.1473388671875	937.40087890625	502.8551330566406	-456.5917358398438	448.5683898925781	476.4677429199219	-423.0426330566406	586.944580078125	458.8870544433594	-563.0582275390625	50.84175109863281	379.6927490234375	-503.6133422851562	232.4985046386719	432.87255859375	-591.9093627929688	40.71571731567383	592.2378540039062	-636.9524536132812	34.33834457397461	532.223876953125	-533.2406005859375	44.02174377441406	500.9868774414062	-634.5210571289062	49.1258544921875	356.0833740234375	-674.5081787109375	503.2296447753906	660.5449829101562	-694.447998046875	743.9832763671875	607.9345092773438	-758.866455078125	156.6073913574219	426.6187744140625	-691.3743286132812	390.5661010742188	624.8017578125	-715.142822265625	55.60383224487305	592.732421875	-781.445556640625	97.52198028564453	507.2655639648438	-708.6116943359375	175.8720855712891	382.803466796875	-751.2427978515625	829.1449584960938	558.0054321289062	-670.787841796875	70.44551849365234	539.6693725585938	nan	nan	nan	
